# Blender 4.2.2 LTS
# www.blender.org
mtllib editor_camera.mtl
o 立方体
v -0.123649 -0.175326 0.232043
v -0.123649 0.199843 0.232043
v -0.123649 -0.175326 -0.262891
v -0.123649 0.199843 -0.262891
v 0.123649 -0.175326 0.232043
v 0.123649 0.199843 0.232043
v 0.123649 -0.175326 -0.262891
v 0.123649 0.199843 -0.262891
v -0.033484 0.199843 -0.194372
v -0.033484 0.199843 0.163524
v -0.000000 -0.099823 0.285051
v -0.000000 -0.099823 0.209151
v 0.079254 -0.066995 0.285051
v 0.079254 -0.066995 0.209151
v 0.112082 0.012259 0.285051
v 0.112082 0.012259 0.209151
v 0.079254 0.091513 0.285051
v 0.079254 0.091513 0.209151
v -0.000000 0.124341 0.285051
v -0.000000 0.124341 0.209151
v -0.079254 0.091513 0.285051
v -0.079254 0.091513 0.209151
v -0.112082 0.012259 0.285051
v -0.112082 0.012259 0.209151
v -0.079254 -0.066995 0.285051
v -0.079254 -0.066995 0.209151
v 0.033484 0.199843 0.163524
v 0.033484 0.199843 -0.194372
v 0.033484 0.293409 0.163524
v -0.033484 0.293409 0.163524
v 0.033484 0.293409 -0.087646
v -0.033484 0.293409 -0.087646
v -0.000000 -0.125067 0.337728
v 0.097104 -0.084845 0.337728
v 0.137325 0.012259 0.337728
v 0.097104 0.109362 0.337728
v -0.000000 0.149584 0.337728
v -0.097104 0.109362 0.337728
v -0.137325 0.012259 0.337728
v -0.097104 -0.084845 0.337728
v -0.123649 -0.058594 0.078048
v -0.123649 0.083112 0.078048
v -0.123649 -0.058594 -0.108895
v -0.123649 0.083112 -0.108895
v -0.199192 -0.043189 -0.088572
v -0.199192 -0.043189 0.057724
v -0.199192 0.067706 0.057724
v -0.199192 0.067706 -0.088572
vn -1.0000 -0.0000 -0.0000
vn -0.0000 -0.0000 -1.0000
vn 1.0000 -0.0000 -0.0000
vn -0.0000 -0.0000 1.0000
vn -0.0000 -1.0000 -0.0000
vn -0.0000 1.0000 -0.0000
vn 0.3499 0.8448 -0.4048
vn 0.3827 -0.9239 -0.0000
vn -0.0000 0.7519 -0.6592
vn 0.9239 -0.3827 -0.0000
vn 0.8448 0.3499 -0.4048
vn 0.9239 0.3827 -0.0000
vn -0.3499 -0.8448 -0.4048
vn 0.3827 0.9239 -0.0000
vn -0.8448 0.3499 -0.4048
vn -0.3827 0.9239 -0.0000
vn 0.8448 -0.3499 -0.4048
vn -0.9239 0.3827 -0.0000
vn -0.9239 -0.3827 -0.0000
vn -0.8448 -0.3499 -0.4048
vn 0.3499 -0.8448 -0.4048
vn -0.3827 -0.9239 -0.0000
vn -0.3499 0.8448 -0.4048
vn -0.1998 0.9798 -0.0000
vn -0.1998 -0.9798 -0.0000
vn -0.2598 -0.0000 -0.9657
vn -0.2598 -0.0000 0.9657
vt 0.375000 0.000000
vt 0.625000 0.000000
vt 0.625000 0.250000
vt 0.375000 0.250000
vt 0.625000 0.500000
vt 0.375000 0.500000
vt 0.625000 0.750000
vt 0.375000 0.750000
vt 0.625000 1.000000
vt 0.375000 1.000000
vt 0.125000 0.500000
vt 0.125000 0.750000
vt 0.875000 0.500000
vt 0.875000 0.750000
vt 0.500000 0.500000
vt 0.750000 0.490000
vt 0.919706 0.419706
vt 0.990000 0.250000
vt 0.919706 0.080294
vt 0.750000 0.010000
vt 0.580294 0.080294
vt 0.510000 0.250000
vt 0.580294 0.419706
vt 1.000000 0.500000
vt 1.000000 1.000000
vt 0.875000 1.000000
vt 0.750000 1.000000
vt 0.750000 0.500000
vt 0.000000 0.500000
vt 0.500000 1.000000
vt 0.250000 0.500000
vt 0.250000 1.000000
vt 0.419706 0.419706
vt 0.250000 0.490000
vt 0.080294 0.419706
vt 0.010000 0.250000
vt 0.080294 0.080294
vt 0.250000 0.010000
vt 0.419706 0.080294
vt 0.490000 0.250000
vt 0.125000 1.000000
vt 0.000000 1.000000
s 0
f 1/1/1 2/2/1 4/3/1 3/4/1
f 3/4/2 4/3/2 8/5/2 7/6/2
f 7/6/3 8/5/3 6/7/3 5/8/3
f 5/8/4 6/7/4 2/9/4 1/10/4
f 3/11/5 7/6/5 5/8/5 1/12/5
f 8/5/6 4/13/6 2/14/6 6/7/6
f 17/5/7 19/15/7 37/15/7 36/5/7
f 33/16/4 34/17/4 35/18/4 36/19/4 37/20/4 38/21/4 39/22/4 40/23/4
f 11/24/8 12/25/8 14/26/8 13/13/8
f 28/5/9 9/13/9 32/13/9 31/5/9
f 13/13/10 14/26/10 16/27/10 15/28/10
f 15/28/11 17/5/11 36/5/11 35/28/11
f 27/7/3 28/5/3 31/5/3 29/7/3
f 15/28/12 16/27/12 18/9/12 17/5/12
f 25/11/13 11/29/13 33/29/13 40/11/13
f 10/14/4 27/7/4 29/7/4 30/14/4
f 17/5/14 18/9/14 20/30/14 19/15/14
f 21/6/15 23/31/15 39/31/15 38/6/15
f 9/13/1 10/14/1 30/14/1 32/13/1
f 19/15/16 20/30/16 22/10/16 21/6/16
f 13/13/17 15/28/17 35/28/17 34/13/17
f 31/5/6 32/13/6 30/14/6 29/7/6
f 21/6/18 22/10/18 24/32/18 23/31/18
f 14/33/2 12/34/2 26/35/2 24/36/2 22/37/2 20/38/2 18/39/2 16/40/2
f 28/5/5 27/7/5 10/14/5 9/13/5
f 23/31/19 24/32/19 26/41/19 25/11/19
f 23/31/20 25/11/20 40/11/20 39/31/20
f 11/24/21 13/13/21 34/13/21 33/24/21
f 25/11/22 26/41/22 12/42/22 11/29/22
f 19/15/23 21/6/23 38/6/23 37/15/23
f 41/1/3 43/4/3 44/3/3 42/2/3
f 46/1/1 47/2/1 48/3/1 45/4/1
f 42/2/24 44/3/24 48/3/24 47/2/24
f 43/4/25 41/1/25 46/1/25 45/4/25
f 44/3/26 43/4/26 45/4/26 48/3/26
f 41/1/27 42/2/27 47/2/27 46/1/27
